<?xml version="1.0" encoding="UTF-8" standalone="no"?>
<svg
   xmlns:dc="http://purl.org/dc/elements/1.1/"
   xmlns:cc="http://creativecommons.org/ns#"
   xmlns:rdf="http://www.w3.org/1999/02/22-rdf-syntax-ns#"
   xmlns:svg="http://www.w3.org/2000/svg"
   xmlns="http://www.w3.org/2000/svg"
   xmlns:xlink="http://www.w3.org/1999/xlink"
   xmlns:sodipodi="http://sodipodi.sourceforge.net/DTD/sodipodi-0.dtd"
   xmlns:inkscape="http://www.inkscape.org/namespaces/inkscape"
   version="1.1"
   id="svg2"
   xml:space="preserve"
   width="330"
   height="330"
   viewBox="0 0 330 330"
   sodipodi:docname="fav.svg"
   inkscape:version="1.0beta1 (32d4812, 2019-09-19)">
  <metadata
   id="metadata8">
    <rdf:RDF>
      <cc:Work
   rdf:about="">
        <dc:format>image/svg+xml</dc:format>













        <dc:type
   rdf:resource="http://purl.org/dc/dcmitype/StillImage" />













        <dc:title></dc:title>













      </cc:Work>













    </rdf:RDF>













  </metadata>













  <defs
   id="defs6"><linearGradient
   inkscape:collect="always"
   id="linearGradient1059">
  <stop
   style="stop-color:#ed0000;stop-opacity:0.9254902"
   offset="0"
   id="stop1055" />


<stop
   id="stop1065"
   offset="0.43928638"
   style="stop-color:#de0000;stop-opacity:1" />






  <stop
   style="stop-color:#de0000;stop-opacity:0.83333333"
   offset="1"
   id="stop1057" />






</linearGradient>


<linearGradient
   inkscape:collect="always"
   id="linearGradient1147">
  <stop
   style="stop-color:#a40000;stop-opacity:1"
   offset="0"
   id="stop1143" />


<stop
   id="stop1061"
   offset="0.29095"
   style="stop-color:#de0000;stop-opacity:1" />






  <stop
   style="stop-color:#f15a29;stop-opacity:0.73062016"
   offset="1"
   id="stop1145" />






</linearGradient>






<linearGradient
   inkscape:collect="always"
   id="linearGradient1141">
  <stop
   style="stop-color:#de0000;stop-opacity:1"
   offset="0"
   id="stop1137" />






  <stop
   style="stop-color:#f15a29;stop-opacity:0.63178295"
   offset="1"
   id="stop1139" />






</linearGradient>







    <clipPath
   clipPathUnits="userSpaceOnUse"
   id="clipPath22">
      <path
   inkscape:connector-curvature="0"
   d="M 0,792 H 612 V 0 H 0 Z"
   id="path20" />













    </clipPath>













    <clipPath
   clipPathUnits="userSpaceOnUse"
   id="clipPath30">
      <path
   inkscape:connector-curvature="0"
   d="M 124.75,628.75 H 161.5 V 603.5 h -36.75 z"
   id="path28" />













    </clipPath>













    <clipPath
   clipPathUnits="userSpaceOnUse"
   id="clipPath58">
      <path
   inkscape:connector-curvature="0"
   d="M 0,792 H 612 V 0 H 0 Z"
   id="path56" />













    </clipPath>













    <clipPath
   clipPathUnits="userSpaceOnUse"
   id="clipPath90">
      <path
   inkscape:connector-curvature="0"
   d="M 0,792 H 612 V 0 H 0 Z"
   id="path88" />













    </clipPath>













  
          





        
          





        <linearGradient
   inkscape:collect="always"
   id="linearGradient961">
  <stop
   style="stop-color:#de0000;stop-opacity:1"
   offset="0"
   id="stop957" />






  <stop
   style="stop-color:#f15a29;stop-opacity:0.32751938"
   offset="1"
   id="stop959" />






</linearGradient>






<linearGradient
   id="linearGradient2477"
   inkscape:collect="always">
  <stop
   id="stop2473"
   offset="0"
   style="stop-color:#f15a29;stop-opacity:1" />






  <stop
   id="stop2475"
   offset="1"
   style="stop-color:#f15a29;stop-opacity:0.57692308" />






</linearGradient>






<linearGradient
   id="linearGradient2469"
   inkscape:collect="always">
  <stop
   id="stop2465"
   offset="0"
   style="stop-color:#0000ff;stop-opacity:1;" />






  <stop
   id="stop2467"
   offset="1"
   style="stop-color:#000000;stop-opacity:0.5" />






</linearGradient>






<linearGradient
   inkscape:collect="always"
   id="linearGradient2447">
  <stop
   style="stop-color:#de0000;stop-opacity:0.73643411"
   offset="0"
   id="stop2443" />






  <stop
   id="stop2449"
   offset="0.39272428"
   style="stop-color:#de0000;stop-opacity:1" />






  <stop
   style="stop-color:#8d0000;stop-opacity:1"
   offset="1"
   id="stop2445" />






</linearGradient>






<linearGradient
   id="linearGradient1515"
   inkscape:collect="always">
  <stop
   id="stop1511"
   offset="0"
   style="stop-color:#f15a29;stop-opacity:0.85077519" />


<stop
   style="stop-color:#de0000;stop-opacity:1"
   offset="0.46971202"
   id="stop1063" />






  <stop
   id="stop1513"
   offset="1"
   style="stop-color:#a10000;stop-opacity:1" />






</linearGradient>






<linearGradient
   gradientTransform="matrix(3.6463788,0,0,-3.6463788,-288.64753,968.8168)"
   spreadMethod="pad"
   gradientUnits="userSpaceOnUse"
   y2="129.73346"
   x2="85.419151"
   y1="141.83131"
   x1="100.42542"
   id="linearGradient1471"
   xlink:href="#linearGradient1147"
   inkscape:collect="always" />






<linearGradient
   gradientTransform="matrix(3.6463788,0,0,-3.6463788,-288.64753,968.81682)"
   gradientUnits="userSpaceOnUse"
   y2="114.38126"
   x2="105.85752"
   y1="124.9303"
   x1="117.69573"
   id="linearGradient1485"
   xlink:href="#linearGradient1515"
   inkscape:collect="always" />






<linearGradient
   spreadMethod="pad"
   y2="140.85283"
   x2="105.41756"
   y1="151.43614"
   x1="112.78808"
   gradientTransform="matrix(3.6463788,0,0,-3.6463788,-288.64753,968.8168)"
   gradientUnits="userSpaceOnUse"
   id="linearGradient1618"
   xlink:href="#linearGradient2447"
   inkscape:collect="always" />






<linearGradient
   gradientUnits="userSpaceOnUse"
   y2="121.64484"
   x2="134.71071"
   y1="137.66458"
   x1="114.41579"
   id="linearGradient2471"
   xlink:href="#linearGradient2469"
   inkscape:collect="always" />






<linearGradient
   gradientTransform="matrix(1.2863614,0,0,1.2863614,-78.604881,0.92503151)"
   gradientUnits="userSpaceOnUse"
   y2="131.88741"
   x2="84.475952"
   y1="118.79121"
   x1="96.369453"
   id="linearGradient2479"
   xlink:href="#linearGradient2477"
   inkscape:collect="always" />















      






    
        






        






        





        






        






        






        






      <linearGradient
   y2="131.88741"
   x2="84.475952"
   y1="105.46252"
   x1="116.05679"
   gradientTransform="matrix(3.6463788,0,0,-3.6463788,-288.64753,968.81682)"
   gradientUnits="userSpaceOnUse"
   id="linearGradient1172"
   xlink:href="#linearGradient1059"
   inkscape:collect="always" />






<linearGradient
   y2="121.64484"
   x2="134.71071"
   y1="137.66458"
   x1="114.41579"
   gradientTransform="matrix(3.6463788,0,0,-3.6463788,-288.64753,968.81681)"
   gradientUnits="userSpaceOnUse"
   id="linearGradient1049"
   xlink:href="#linearGradient1141"
   inkscape:collect="always" />


<linearGradient
   y2="160.13469"
   x2="84.564774"
   y1="145.70503"
   x1="96.345856"
   gradientTransform="matrix(3.6463788,0,0,-3.6463788,-288.64753,968.81681)"
   gradientUnits="userSpaceOnUse"
   id="linearGradient1053"
   xlink:href="#linearGradient961"
   inkscape:collect="always" />


</defs>













  <sodipodi:namedview
   fit-margin-bottom="0"
   fit-margin-right="0"
   fit-margin-left="0"
   fit-margin-top="0"
   pagecolor="#ffffff"
   bordercolor="#666666"
   borderopacity="1"
   objecttolerance="10"
   gridtolerance="10"
   guidetolerance="10"
   inkscape:pageopacity="0"
   inkscape:pageshadow="2"
   inkscape:window-width="1440"
   inkscape:window-height="847"
   id="namedview4"
   inkscape:document-rotation="0"
   showgrid="false"
   inkscape:zoom="0.98994949"
   inkscape:cx="341.41115"
   inkscape:cy="200.38569"
   inkscape:window-x="0"
   inkscape:window-y="25"
   inkscape:window-maximized="0"
   inkscape:current-layer="g977"
   units="px" />













  <g
   id="g10"
   inkscape:groupmode="layer"
   inkscape:label="LOGO shru"
   transform="matrix(1.3333333,0,0,-1.3333333,-38.048132,838.33331)">
    

    

    

    

    

    

    

    

    








  <g
   transform="translate(0,18.803609)"
   id="g992">
  <g
   transform="translate(30.046656,-22.886964)"
   id="g932">
  <g
   transform="translate(7.4533447)"
   id="g977">
    


























































    










    










    










    










    










    










    










    




























  <g
   transform="translate(24.129251,9.0525451)"
   id="g958">
  <path
     id="path146"
     style="opacity:1;fill:url(#linearGradient1618);fill-opacity:1;stroke:none;stroke-width:0.964769px;stroke-linecap:butt;stroke-linejoin:miter;stroke-opacity:1;stop-opacity:1"
     d="M 99.265788,455.40787 76.31291,441.153 c 17.178203,-8.44035 34.36583,-16.44605 50.00792,-28.6435 9.29955,-7.10864 17.11427,-15.20549 19.03916,-26.02247 0.38998,1.48164 0.72436,2.97723 1.01754,4.48092 2.31431,13.59783 0.67615,29.02011 -8.78847,39.72898 -9.99654,11.5882 -23.9523,18.86097 -37.933214,24.54514 -0.128494,0.0556 -0.261439,0.11055 -0.390058,0.16583 z"
     inkscape:connector-curvature="0" />
  <path
     id="path1615"
     style="opacity:1;fill:url(#linearGradient1471);fill-opacity:1;stroke:none;stroke-width:0.964769px;stroke-linecap:butt;stroke-linejoin:miter;stroke-opacity:1;stop-opacity:1"
     d="m 32.410173,515.98493 c -0.149159,-11.69717 -0.339769,-23.40417 0.165798,-35.09541 -0.326242,-7.63365 4.209721,-14.14843 9.142722,-19.51778 6.639775,-6.09129 15.114807,-9.67403 22.762568,-14.31519 3.940934,-2.05611 7.874104,-3.95904 11.831632,-5.90355 l 22.952878,14.25487 c -18.758779,8.05232 -38.978817,15.5181 -52.672352,31.38522 -7.69841,7.91037 -13.148663,18.0999 -14.183263,29.19184 z"
     inkscape:connector-curvature="0" />
  <path
     inkscape:connector-curvature="0"
     d="m 102.841,394.22 h -24.64 v 134.974 h 24.64 z"
     style="opacity:1;fill:#231f20;fill-opacity:1;fill-rule:nonzero;stroke:none;stop-opacity:1"
     id="path104" />
  <path
     sodipodi:nodetypes="cccccccccccc"
     inkscape:connector-curvature="0"
     d="m 146.13644,477.86118 c 0.43191,13.46227 1.48437,27.05746 -0.21441,40.44223 -2.32694,8.29763 -4.27761,11.31387 -7.97697,16.06802 -6.59892,6.89743 -14.74843,12.12727 -23.23673,16.40225 -4.64235,2.50796 -9.45911,4.67382 -14.25906,6.8586 -5.753544,-2.2917 -11.507129,-4.58331 -17.260677,-6.87501 -2.194172,-3.99824 -4.38831,-7.99645 -6.582481,-11.99472 8.801047,-1.53093 17.497732,-3.8412 25.573228,-7.72682 9.27441,-4.38225 18.41581,-9.33998 26.32784,-15.91857 7.14033,-6.92884 13.77784,-13.96917 15.94047,-25.07976 1.13005,-4.04983 1.10649,-8.01088 1.68885,-12.17622 z"
     style="opacity:1;fill:url(#linearGradient1485);fill-opacity:1;stroke:none;stroke-width:0.964769px;stroke-linecap:butt;stroke-linejoin:miter;stroke-opacity:1;stop-opacity:1"
     id="path247" />
  <path
     id="path137-2"
     style="display:inline;opacity:1;fill:url(#linearGradient1172);fill-opacity:1;stroke:none;stroke-width:0.964769px;stroke-linecap:butt;stroke-linejoin:miter;stroke-opacity:1;stop-opacity:1"
     d="m 32.291064,479.62853 0.206872,35.58112 c 0.815108,7.31336 4.611646,13.74528 9.651991,18.99028 9.443101,9.82653 21.238626,16.82743 33.468685,22.67252 19.470178,9.30526 39.735258,16.14076 56.959068,29.93219 11.38341,9.11494 16.48856,26.76994 16.48856,26.76994 0,0 -0.0292,-22.27601 -0.10247,-33.40874 -2.40136,-11.36058 -12.13201,-18.94533 -21.45923,-24.4588 -11.93777,-7.05659 -22.45218,-11.19724 -36.874081,-18.47293 -12.957954,-6.53717 -26.0936,-13.74191 -38.036586,-21.96768 -8.53723,-5.8801 -15.350315,-14.63176 -18.09246,-24.89579 -0.947413,-3.5462 -2.210534,-10.74211 -2.210534,-10.74211 z"
     inkscape:connector-curvature="0"
     sodipodi:nodetypes="ccsssccsssscc" />
  <path
     inkscape:connector-curvature="0"
     id="path926"
     style="opacity:1;fill:#de0000;fill-opacity:1;stroke:none;stroke-width:0.964769px;stroke-linecap:butt;stroke-linejoin:miter;stroke-opacity:1;stop-opacity:1"
     d="M 102.03228,440.88422 90.4946,461.70591 c -5.832252,-2.57938 -11.654357,-5.13632 -17.446898,-7.90472 -0.539272,-0.25767 -1.060498,-0.55352 -1.597907,-0.81587 L 83.27954,431.61147 c 1.599542,0.82647 3.183811,1.74586 4.780519,2.55138 5.201745,2.62423 9.536993,4.62909 13.972221,6.72137 z" />
  <path
     id="path946"
     style="opacity:1;fill:url(#linearGradient1049);fill-opacity:1;stroke:none;stroke-width:0.964769px;stroke-linecap:butt;stroke-linejoin:miter;stroke-opacity:1;stop-opacity:1"
     d="m 146.69908,511.21915 c 0,0 -5.30879,-18.3706 -16.6922,-27.48552 -15.8169,-12.66491 -34.193708,-19.52929 -52.169248,-27.76167 l 17.026705,-18.53603 c 10.892763,5.24373 20.229003,9.38174 30.069963,15.19889 9.3272,5.51347 19.05725,13.09978 21.45861,24.46033 0.65838,12.74176 0.30618,34.124 0.30618,34.124 z"
     inkscape:connector-curvature="0"
     sodipodi:nodetypes="csccscc" />
  <path
     sodipodi:nodetypes="ccczccccc"
     inkscape:connector-curvature="0"
     id="path137"
     style="opacity:1;fill:url(#linearGradient1053);fill-opacity:1;stroke:none;stroke-width:0.964769px;stroke-linecap:butt;stroke-linejoin:miter;stroke-opacity:1;stop-opacity:1"
     d="m 94.864337,437.43593 -17.026705,18.53603 c -1.598933,-0.73227 -3.199527,-1.41063 -4.78993,-2.17077 -12.230099,-5.84507 -29.030621,-17.41187 -33.467389,-20.34633 -4.436768,-2.93446 -6.465084,-5.20714 -6.465084,-5.20714 0,0 9.783696,-13.5646 13.561964,-18.38069 5.455344,3.92959 26.668095,16.651 41.382869,24.29583 2.53315,1.27794 4.483338,2.15578 6.804278,3.27308 z" />
  <g
     aria-label="K"
     transform="matrix(1,0,0,-0.89703794,139.9966,394.22)"
     id="text14"
     style="font-variant:normal;font-weight:normal;font-stretch:normal;font-size:142.138px;font-family:'Myriad Pro';-inkscape-font-specification:MyriadPro-Regular;writing-mode:lr-tb;fill:#231f20;fill-opacity:1;fill-rule:nonzero;stroke:none">
  








</g>
  <g
     id="g106"
     transform="translate(109.7995,591.2504)"
     style="opacity:1;stop-opacity:1">
          <path
   inkscape:connector-curvature="0"
   d="m 0,0 c 0,-9.977 -8.938,-18.065 -19.963,-18.065 -11.025,0 -19.962,8.088 -19.962,18.065 0,9.977 8.937,18.065 19.962,18.065 C -8.938,18.065 0,9.977 0,0"
   style="fill:#231f20;fill-opacity:1;fill-rule:nonzero;stroke:none"
   id="path108" />













        </g>
</g>
</g>











</g>




  


</g>




</g>













</svg>
