<?xml version="1.0" encoding="UTF-8" standalone="no"?>
<svg
   xmlns:dc="http://purl.org/dc/elements/1.1/"
   xmlns:cc="http://creativecommons.org/ns#"
   xmlns:rdf="http://www.w3.org/1999/02/22-rdf-syntax-ns#"
   xmlns:svg="http://www.w3.org/2000/svg"
   xmlns="http://www.w3.org/2000/svg"
   xmlns:sodipodi="http://sodipodi.sourceforge.net/DTD/sodipodi-0.dtd"
   xmlns:inkscape="http://www.inkscape.org/namespaces/inkscape"
   version="1.1"
   id="svg2"
   xml:space="preserve"
   width="700"
   height="350"
   viewBox="0 0 700 350"
   sodipodi:docname="logo-modified.svg"
   inkscape:version="1.0beta1 (32d4812, 2019-09-19)">
  <metadata
   id="metadata8">
    <rdf:RDF>
      <cc:Work
   rdf:about="">
        <dc:format>image/svg+xml</dc:format>



        <dc:type
   rdf:resource="http://purl.org/dc/dcmitype/StillImage" />



        <dc:title></dc:title>



      </cc:Work>



    </rdf:RDF>



  </metadata>



  <defs
   id="defs6">
    <clipPath
   clipPathUnits="userSpaceOnUse"
   id="clipPath22">
      <path
   inkscape:connector-curvature="0"
   d="M 0,792 H 612 V 0 H 0 Z"
   id="path20" />



    </clipPath>



    <clipPath
   clipPathUnits="userSpaceOnUse"
   id="clipPath30">
      <path
   inkscape:connector-curvature="0"
   d="M 124.75,628.75 H 161.5 V 603.5 h -36.75 z"
   id="path28" />



    </clipPath>



    <clipPath
   clipPathUnits="userSpaceOnUse"
   id="clipPath58">
      <path
   inkscape:connector-curvature="0"
   d="M 0,792 H 612 V 0 H 0 Z"
   id="path56" />



    </clipPath>



    <clipPath
   clipPathUnits="userSpaceOnUse"
   id="clipPath90">
      <path
   inkscape:connector-curvature="0"
   d="M 0,792 H 612 V 0 H 0 Z"
   id="path88" />



    </clipPath>



  </defs>



  <sodipodi:namedview
   fit-margin-bottom="0"
   fit-margin-right="0"
   fit-margin-left="0"
   fit-margin-top="0"
   pagecolor="#ffffff"
   bordercolor="#666666"
   borderopacity="1"
   objecttolerance="10"
   gridtolerance="10"
   guidetolerance="10"
   inkscape:pageopacity="0"
   inkscape:pageshadow="2"
   inkscape:window-width="1440"
   inkscape:window-height="847"
   id="namedview4"
   inkscape:document-rotation="0"
   showgrid="false"
   inkscape:zoom="0.80003935"
   inkscape:cx="341.6788"
   inkscape:cy="204.30561"
   inkscape:window-x="0"
   inkscape:window-y="25"
   inkscape:window-maximized="0"
   inkscape:current-layer="g86"
   units="px" />



  <g
   id="g10"
   inkscape:groupmode="layer"
   inkscape:label="LOGO shru"
   transform="matrix(1.3333333,0,0,-1.3333333,-38.048132,838.33331)">
    

    

    

    

    

    

    

    

    <g
   id="g932"
   transform="translate(30.046656,-4.0833551)">
  <g
   id="g977"
   transform="translate(7.4533447)">
    <text
   transform="matrix(1,0,0,-0.89703794,139.9966,397.8066)"
   style="font-variant:normal;font-weight:normal;font-stretch:normal;font-size:142.138px;font-family:'Myriad Pro';-inkscape-font-specification:MyriadPro-Regular;writing-mode:lr-tb;fill:#231f20;fill-opacity:1;fill-rule:nonzero;stroke:none"
   id="text14"><tspan
     x="0"
     y="0"
     id="tspan12">K</tspan></text>

    <g
   id="g16">
      <g
   id="g18"
   clip-path="url(#clipPath22)">
        <g
   id="g24">
          <g
   id="g26" />



          <g
   id="g38">
            <g
   clip-path="url(#clipPath30)"
   opacity="0.520004"
   id="g36">
              <g
   transform="translate(124.75,628.75)"
   id="g34">
                <path
   inkscape:connector-curvature="0"
   d="M 0,0 36.75,-25.25"
   style="fill:#231f20;fill-opacity:1;fill-rule:nonzero;stroke:none"
   id="path32" />



              </g>



            </g>



          </g>



        </g>



      </g>



    </g>

    <path
   inkscape:connector-curvature="0"
   d="M 351.617,486.193 H 209.5 v 18.456 h 142.117 z"
   style="fill:#231f20;fill-opacity:1;fill-rule:nonzero;stroke:none"
   id="path40" />

    <path
   inkscape:connector-curvature="0"
   d="m 257.097,394.22 h -20.916 v 92.151 h 20.916 z"
   style="fill:#231f20;fill-opacity:1;fill-rule:nonzero;stroke:none"
   id="path42" />

    <path
   inkscape:connector-curvature="0"
   d="m 321.573,394.398 h -19.968 v 91.794 h 19.968 z"
   style="fill:#231f20;fill-opacity:1;fill-rule:nonzero;stroke:none"
   id="path44" />

    <path
   inkscape:connector-curvature="0"
   d="m 285.381,502.56 h -9.646 v 16.881 h 9.646 z"
   style="fill:#231f20;fill-opacity:1;fill-rule:nonzero;stroke:none"
   id="path46" />

    <text
   y="-411.2276"
   x="321.03662"
   transform="scale(1.0337362,-0.96736478)"
   style="font-variant:normal;font-weight:normal;font-stretch:normal;font-size:123.184px;font-family:'Myriad Pro';-inkscape-font-specification:MyriadPro-Regular;writing-mode:lr-tb;fill:#231f20;fill-opacity:1;fill-rule:nonzero;stroke:none;stroke-width:0.967365"
   id="text50"><tspan
     style="stroke-width:0.967365"
     x="321.03662"
     y="-411.2276"
     id="tspan48">C</tspan></text>

    <g
   id="g52">
      <g
   id="g54"
   clip-path="url(#clipPath58)">
        <g
   id="g60"
   transform="translate(388.9297,552.6429)">
          <path
   inkscape:connector-curvature="0"
   d="m 0,0 c 0,-5.16 -4.621,-9.344 -10.322,-9.344 -5.701,0 -10.322,4.184 -10.322,9.344 0,5.16 4.621,9.344 10.322,9.344 C -4.621,9.344 0,5.16 0,0"
   style="fill:#231f20;fill-opacity:1;fill-rule:nonzero;stroke:none"
   id="path62" />



        </g>



        <g
   id="g64"
   transform="translate(89.8498,453.1828)">
          <path
   inkscape:connector-curvature="0"
   d="M 0,0 Z"
   style="fill:#231f20;fill-opacity:1;fill-rule:nonzero;stroke:none"
   id="path66" />



        </g>



        <g
   id="g68"
   transform="translate(90.521,453.1828)">
          <path
   inkscape:connector-curvature="0"
   d="M 0,0 H -0.671 Z"
   style="fill:#231f20;fill-opacity:1;fill-rule:nonzero;stroke:none"
   id="path70" />



        </g>



        <g
   id="g72"
   transform="translate(42.3799,383.8879)">
          <path
   inkscape:connector-curvature="0"
   d="m 0,0 c 13.85,-0.012 27.7,-0.024 41.551,-0.036 33.268,-0.03 66.537,-0.059 99.806,-0.088 40.427,-0.036 80.855,-0.071 121.282,-0.107 34.679,-0.03 69.358,-0.06 104.037,-0.091 16.898,-0.015 34.151,-1.045 51.028,-0.045 0.233,0.014 0.471,0 0.705,0 0.603,-0.001 3.272,1.156 1.886,1.157 -13.85,0.012 -27.701,0.024 -41.551,0.036 C 345.475,0.855 312.207,0.885 278.938,0.914 238.511,0.949 198.083,0.985 157.656,1.02 122.977,1.051 88.298,1.081 53.619,1.112 36.721,1.126 19.468,2.157 2.591,1.156 2.358,1.143 2.12,1.157 1.886,1.157 1.283,1.158 -1.386,0.001 0,0"
   style="fill:#231f20;fill-opacity:1;fill-rule:nonzero;stroke:none"
   id="path74" />



        </g>



        <g
   id="g76"
   transform="translate(82.0168,374.9167)">
          <path
   inkscape:connector-curvature="0"
   d="M 0,0 H 349.115"
   style="fill:#ffffff;fill-opacity:1;fill-rule:nonzero;stroke:#231f20;stroke-width:1;stroke-linecap:butt;stroke-linejoin:miter;stroke-miterlimit:10;stroke-dasharray:none;stroke-opacity:1"
   id="path78" />



        </g>



      </g>



    </g>

    <g
   id="g84">
      <g
   id="g86"
   clip-path="url(#clipPath90)">
        <g
   id="g92"
   transform="translate(371.8158,398.8207)">
          <path
   inkscape:connector-curvature="0"
   d="m 0,0 c 13.122,3.94 26.372,7.935 38.373,15.066 5.122,3.043 10.122,6.796 13.296,12.23 4.55,7.789 4.669,17.771 3.835,27.032 -0.446,4.953 -1.121,9.91 -0.926,14.884 0.194,4.974 1.341,10.064 4.146,13.925 3.026,4.164 7.724,6.5 12.474,7.214 7.749,1.165 15.913,-1.835 21.541,-7.914 C 89.074,80.523 85.335,78.552 82.435,75.396 78.033,70.605 76.088,63.651 75.102,56.865 74.117,50.079 73.917,43.123 72.234,36.511 67.608,18.326 51.356,5.205 34.493,4.364 41.815,4.341 49.328,4.355 56.176,7.258 c 6.816,2.89 12.537,8.528 16.711,15.22 4.174,6.693 6.884,14.413 8.784,22.294 1.064,4.41 1.894,8.921 3.535,13.103 1.64,4.182 4.216,8.096 7.868,10.127 3.879,2.157 8.541,1.933 12.664,0.448 4.123,-1.484 7.824,-4.123 11.474,-6.734 -4.898,0.917 -9.857,-2.057 -13.121,-6.25 C 100.826,51.273 98.932,45.995 97.078,40.834 94.366,33.28 91.581,25.665 87.361,19.037 83.141,12.408 77.296,6.761 70.275,4.659 c 2.823,0.845 6.021,0.127 8.993,1.184 3.041,1.082 5.901,2.826 8.358,5.109 5.419,5.034 8.894,12.638 11.572,19.777 1.6,4.263 3.051,8.724 5.78,12.195 2.828,3.596 6.955,5.87 11.224,6.185 4.53,0.334 9.494,-1.903 11.425,-6.506 -0.324,0.774 -6.437,-2.511 -7.033,-2.907 -5.027,-3.346 -7.261,-9.631 -9.857,-15.21 C 107.983,18.569 105.144,12.543 100.743,7.927 95.476,2.402 88.417,-0.596 81.292,-1.88 74.168,-3.164 66.9,-2.859 59.69,-2.551 39.793,-1.701 19.897,-0.85 0,0"
   style="fill:#231f20;fill-opacity:1;fill-rule:nonzero;stroke:none"
   id="path94" />



        </g>



        <g
   id="g96"
   transform="translate(150.9891,615.4469)">
          <path
   inkscape:connector-curvature="0"
   d="m 0,0 c 0,0 -25.641,-37.564 -52.722,-46.659 -32.3,-10.847 -63.797,-24.388 -67.415,-47.845 -0.56,-3.632 -1.417,-13.295 -1.44,-23.725 -0.022,-9.772 0.663,-17.9 1.32,-23.627 0.724,-1.875 1.562,-3.78 2.533,-5.684 5.302,-10.386 13.401,-18.073 22.104,-22.125 -8.944,-4.447 -17.889,-8.894 -26.833,-13.34 3.172,-8.025 6.345,-16.05 9.517,-24.075 9.663,5.813 19.327,11.626 28.99,17.438 5.143,3.093 10.46,6.241 16.074,6.346 5.016,0.093 9.872,-2.257 14.529,-4.817 15.02,-8.258 29.303,-19.04 42.428,-32.029 2.817,-2.788 5.836,-6.306 6.004,-11.067 -0.173,4.906 2.213,10.038 1.949,15.416 -0.232,4.725 -1.214,9.32 -2.731,13.563 -7.956,22.247 -29.039,33.927 -44.697,43.191 4.448,-2.937 8.897,-5.873 13.346,-8.81 1.059,-0.699 2.148,-1.409 3.318,-1.545 1.4,-0.162 2.774,0.511 4.08,1.22 5.309,2.88 10.398,6.518 15.159,10.837 4.571,4.147 7.221,7.693 9.514,13.437 2.395,5.996 2.703,11.303 3.13,18.666 0.477,8.215 0.906,15.599 -1.187,24.464 -2.973,12.591 -9.098,20.398 -11.732,23.119 -5.587,5.77 -12.076,9.623 -18.493,13.419 9.304,-5.481 25.885,15.647 31.238,24.69 C 4.006,-29.369 0.647,-4.551 0,0"
   style="fill:#f15a29;fill-opacity:1;fill-rule:nonzero;stroke:none"
   id="path98" />



        </g>



        <g
   id="g100"
   transform="translate(90.6897,535.1035)">
          <path
   inkscape:connector-curvature="0"
   d="m 0,0 c -8.402,0.11 -15.059,-4.641 -28.373,-14.144 -14.17,-10.114 -21.255,-15.171 -21.271,-22.172 -0.015,-6.548 6.16,-11.374 18.509,-21.025 3.843,-3.004 13.636,-10.2 27.348,-14.909 1.503,-0.516 2.752,-0.899 3.592,-1.147 7.89,2.678 14.487,5.904 19.613,8.793 8.004,4.51 5.814,4.472 18.233,12.615 1.674,1.098 5.075,3.302 8.287,8.028 2.001,2.943 3.069,4.514 3.315,6.498 1.186,9.551 -17.552,21.528 -25.139,26.377 C 12.646,-3.756 6.912,-0.09 0,0"
   style="fill:#ffffff;fill-opacity:1;fill-rule:nonzero;stroke:none"
   id="path102" />



        </g>



        <path
   inkscape:connector-curvature="0"
   d="m 102.841,394.22 h -24.64 v 134.974 h 24.64 z"
   style="fill:#231f20;fill-opacity:1;fill-rule:nonzero;stroke:none"
   id="path104" />



        <g
   id="g106"
   transform="translate(109.7995,591.2504)">
          <path
   inkscape:connector-curvature="0"
   d="m 0,0 c 0,-9.977 -8.938,-18.065 -19.963,-18.065 -11.025,0 -19.962,8.088 -19.962,18.065 0,9.977 8.937,18.065 19.962,18.065 C -8.938,18.065 0,9.977 0,0"
   style="fill:#231f20;fill-opacity:1;fill-rule:nonzero;stroke:none"
   id="path108" />



        </g>



        <g
   id="g110"
   transform="translate(309.0719,511.2809)">
          <path
   inkscape:connector-curvature="0"
   d="m 0,0 c -41.834,37.888 -93.334,63.957 -148.657,75.18 -11.534,2.34 -23.187,4.022 -34.903,5.126 -0.546,0.051 -1.54,-0.714 -0.568,-0.805 C -116.287,73.107 -51.911,45.233 -1.347,-0.562 -0.977,-0.897 0.381,-0.345 0,0"
   style="fill:#231f20;fill-opacity:1;fill-rule:nonzero;stroke:none"
   id="path112" />



        </g>



        <g
   id="g114"
   transform="translate(309.113,511.7528)">
          <path
   inkscape:connector-curvature="0"
   d="m 0,0 c 13.266,17.14 31.865,29.423 52.883,34.784 0.843,0.215 0.734,0.669 -0.121,0.451 C 31.241,29.745 12.173,17.32 -1.429,-0.255 -1.521,-0.374 -0.266,-0.343 0,0"
   style="fill:#231f20;fill-opacity:1;fill-rule:nonzero;stroke:none"
   id="path116" />



        </g>



      </g>



    </g>

  </g>

</g>



  </g>



</svg>
